<svg id="Layer_1" data-name="Layer 1" xmlns="http://www.w3.org/2000/svg" viewBox="0 0 849.24 718.53"><defs><style>.cls-1{fill:#fefefe;}.cls-2{fill:#e43737;}.cls-3{fill:#e43636;}.cls-4{fill:#fefdfd;}.cls-5{fill:#fefcfc;}</style></defs><title>what2watch_LOGO</title><path class="cls-1" d="M87.87,610.65V25H937.12V743.54H87.87v-131a6.52,6.52,0,0,1,.45,1.23q3.11,18.46,6.18,36.92,5.66,33.75,11.33,67.5,1.89,11.29,3.81,22.6h22.7c3.17-20.91,6.33-41.71,9.51-62.66l2.61.25a10,10,0,0,1,.35,1.25q4.22,29.56,8.36,59.14c.22,1.55.71,2.06,2.28,2q9.44-.12,18.86,0c1.38,0,2.05-.33,2.3-1.78q3.66-21.62,7.43-43.23,6.11-35.29,12.24-70.59c.82-4.72,1.61-9.45,2.42-14.2-4-.41-7.67-.93-11.4-1.17-6.31-.4-9.69,2.24-10.66,8.51-.73,4.69-.92,9.45-1.61,14.15-2.16,14.62-4.43,29.22-6.67,43.82-.76,5-1.54,9.94-2.32,15l-2.66-.22c-.17-.8-.34-1.39-.42-2q-4.92-35.14-9.82-70.3c-1-7.17-3.45-9.21-10.74-8.71l-.92.07c-5.09.39-7.42,2.61-8.06,7.69-.37,3-.65,5.94-1.09,8.89q-3.57,24.09-7.2,48.16c-.83,5.43-1.81,10.84-2.74,16.4l-2.64-.14c-3.73-26.19-7.45-52.18-11.08-78.19-.24-1.72-.82-2.1-2.42-2.1C100.12,610.84,94,610.72,87.87,610.65Zm559-245.33.33-.65c-.43-.81-.84-1.63-1.28-2.43A77,77,0,0,1,638,310c2.57-13.44,7.76-25.91,13.65-38.13,14.57-30.2,32-58.77,50.22-86.83,14.21-21.82,28.57-43.54,42.79-65.36a61.45,61.45,0,0,0,8.23-18.11c3.33-12.78.37-23.69-10-32.18A52.73,52.73,0,0,0,733,62.8C720,56.3,706.09,52.15,692,49a760.65,760.65,0,0,0-88.63-14.14c-24.68-2.56-49.44-4.73-74.22-5.9-25.41-1.19-50.88-1.15-76.32-1.27-12.87-.06-25.79.18-38.6,1.27-16.09,1.38-32.08,3.83-48.12,5.73-20.16,2.39-34.57,12.83-43.28,31-7.14,14.93-11,30.79-12.71,47.21-1.36,12.93-.9,25.86-.09,38.81a363.35,363.35,0,0,0,9.11,60.57c7.73,33,19.57,64.5,33.66,95.26,2.44,5.31,6.4,7.69,11.7,8.21q12,1.19,24.06,1.77A285,285,0,0,1,433,322.77c39.69,8.32,79.33,16.9,119.09,24.85C583.58,353.92,615.25,359.45,646.84,365.32ZM372.62,396.37c-1.54,4.27-2.81,8.18-4.35,12q-19.27,47.53-38.63,95c-4,9.85-8.11,19.67-11.87,29.61-4.89,12.88,1,24.38,14,27.73,9.75,2.53,19.42-1.89,24.06-11.46a181.48,181.48,0,0,0,7.37-17.79c2.53-7.05,5.45-9.47,12.94-9.74.92,0,1.84,0,2.76,0q69.57.21,139.16.41,31.85.07,63.71-.1c25.15-.11,50.29-.43,75.44-.46,10.1,0,20.25,0,30.29.9,10.73,1,18.24,7,21.79,17.47a49.6,49.6,0,0,1,1.44,5.07c2.49,11.2,12.77,18.08,23.9,16,9.14-1.73,15.67-8.26,17-17.05.77-5.2-.89-10-2.78-14.72q-17.14-42.7-34.36-85.38c-1.07-2.66-.58-3.71,2.17-4.81,6.12-2.43,12.34-4.62,18.31-7.35,23.75-10.8,42.67-26.9,54.42-50.6,8.75-17.66,12.85-36.14,9.38-55.87-6.6-37.63-40.1-64.64-82.52-58.36-23.94,3.55-40.88,17.56-51.13,39.35-4.5,9.57-6.66,19.75-4.37,30.39,2.23,10.34,9.1,16.88,19.41,18.08,8.85,1,16.16-2.51,21.65-9.25,2.75-3.39,4.6-7.53,6.7-11.41.87-1.6,1.31-3.43,2-5.12,4.56-10.9,12.22-14.58,23.63-11.37,8.48,2.38,13.77,7.94,14.36,15.41.47,6,.33,12-1.67,17.75-7.93,22.66-23.9,36.22-47.44,40.45-7.87,1.42-16,1.62-24,2.07-17.94,1-35.92,1-53.65-2.13q-44.31-7.89-88.45-16.63c-37-7.3-73.91-15.18-110.94-22.41a328.82,328.82,0,0,0-56.62-5.94c-18.13-.35-36.18.32-53.89,4.7-26.66,6.61-48.25,20.55-63.27,44-13.07,20.39-18.71,42.3-13.38,66.35,4.15,18.77,13.06,34.74,28.42,46.72a31.56,31.56,0,0,0,22.79,6.71A22,22,0,0,0,306,498c2-7.72.09-14.78-4.13-21.21a73.58,73.58,0,0,0-7.44-9c-14.52-15.92-13.77-37.58,1.89-52.36a64.28,64.28,0,0,1,22.11-13.69C335.85,395.33,354,396.11,372.62,396.37ZM541.93,740.61h22.7q4.77-31.73,9.49-63.16c1.52-.29,2.53-.42,2.8,1.45q3.18,22.62,6.5,45.24c.82,5.67,1.68,11.33,2.52,17.06l1.5.09c4.44.13,8.88.22,13.31.41s7.49-1.7,8.69-6.2c.85-3.24,1.22-6.62,1.79-9.93q3.57-20.6,7.12-41.19,5.21-30.21,10.37-60.43c.72-4.2,1.42-8.4,2.23-13.19-5.18-.23-10.05-.61-14.92-.62-3.84,0-5.32,1.37-6.33,5.07a20.91,20.91,0,0,0-.57,2.7q-3.92,27-7.82,54.11c-.95,6.5-2,13-3,19.62l-2.4-.15c-.65-3.8-1.38-7.4-1.89-11-2.93-20.63-5.79-41.26-8.71-61.88-1-7.09-3.94-9.29-11.13-8.6l-1.14.13c-4.27.47-6.38,2.28-7.15,6.5-.65,3.61-1,7.27-1.56,10.91-2.4,16.44-4.74,32.89-7.26,49.32-.85,5.55-2.15,11-3.25,16.54l-.74-.1a17.44,17.44,0,0,1-.54-2c-1.15-6.79-2.39-13.57-3.38-20.38-2-13.95-3.91-27.91-5.86-41.86-.61-4.4-1-8.84-1.89-13.18-.77-3.84-2.92-5.81-6.66-5.82-4.78,0-9.56.56-14.61.9C527.44,654.39,534.68,697.47,541.93,740.61ZM916,610.33c0,.62-.07,1-.07,1.39q0,21,0,42.08c0,1.45-.08,2.9-.17,4.35a3.83,3.83,0,0,1-4,3.94c-6.59.2-13.19.43-19.77.23-4.19-.12-5.9-2.22-5.9-6.37,0-11.73,0-23.46.16-35.18.14-8.64-2.27-11.2-10.92-10.92-8.06.26-10.1,2.38-10.11,10.47V621q.09,56.36.21,112.7a66.25,66.25,0,0,0,.76,7h19.9v-2.62q0-22.77,0-45.54c0-1.6.18-3.21.3-4.81a3.77,3.77,0,0,1,4.06-3.83c6.89,0,13.79.05,20.67.35,2.87.12,4,1.58,4.35,4.43a42.78,42.78,0,0,1,.31,5q.06,22.08,0,44.16v2.61h20.72c0-.49.09-.79.09-1.1q-.13-61.41-.27-122.82a6.17,6.17,0,0,0-5.64-6.19C925.9,610.14,921,610.33,916,610.33ZM262.34,740.61h21.48v-2.35q-.17-55.87-.36-111.75a102.5,102.5,0,0,0-.58-11.23c-.44-3.83-2.5-5.63-6.34-5.54a97.91,97.91,0,0,0-11.19,1c-1.76.24-2.83,1.34-2.79,3.5.14,6.74.08,13.48.09,20.23,0,7.36,0,14.71,0,22.07,0,3.65-1.11,5.38-4.18,5.5q-10.1.4-20.2.13c-3.12-.08-4.61-1.8-5.18-4.89a18.72,18.72,0,0,1-.22-3.43c.06-10,.2-19.92.2-29.89a58.31,58.31,0,0,0-.63-9.15c-.57-3.6-2.36-5.07-6-5-3.43.05-6.87.42-10.29.79-3.09.34-3.3.68-3.3,3.72V740.72h20.08v-2.63c0-9.27-.06-18.55,0-27.82,0-7.13.06-14.25.27-21.38.11-3.45,1.12-4.43,4.65-4.72,4.42-.37,8.87-.42,13.3-.66,8.69-.46,11.77,2.49,11.63,11.21-.14,8-.33,16.09-.41,24.14C262.28,726.05,262.34,733.25,262.34,740.61ZM679.75,610c-6.2,0-12.18.25-18.14-.07-6.23-.33-9.39,1.65-10.6,7.85-1.34,6.83-2.43,13.71-3.65,20.57q-7.71,43.39-15.42,86.79c-.91,5.1-1.74,10.21-2.65,15.57,6.46,0,12.66,0,18.85-.07.53,0,1.33-.87,1.53-1.49.63-2,1-4.16,1.57-6.22.91-3.28,3-5.53,6.49-5.53,5.19,0,10.39.31,15.57.75a6.93,6.93,0,0,1,5.89,4.56c.91,2.18,1.65,4.44,2.59,6.61.25.57.94,1.35,1.44,1.36,6.11.09,12.23.06,18.69.06C694.51,697.11,687.16,653.76,679.75,610ZM367.15,740.45c-2.58-15.15-5.12-29.94-7.62-44.73-3.31-19.62-6.57-39.26-9.91-58.88Q347.93,626.9,346,617c-.8-4-3.35-6.41-7.44-6.66a120.21,120.21,0,0,0-13.55-.26c-5.61.29-7.89,2.55-8.86,8.09-1.73,9.8-3.35,19.62-5.09,29.41q-6.76,38-13.58,76c-1,5.69-2,11.4-3,17.22H314c.87-2.41,1.68-4.78,2.57-7.13,1.16-3,3.28-5,6.58-5.35,4.8-.46,9.61-1,14.42-1.07,4.34,0,6.52,2,7.64,6.23.5,1.85.75,3.76,1.28,5.59.16.57.9,1.37,1.38,1.38C354.21,740.48,360.56,740.45,367.15,740.45ZM462.88,655c.14-2.26.21-4.31.42-6.35a47.62,47.62,0,0,1,1-7.27c2-7.61,9.29-12.51,16.2-11.1a15.44,15.44,0,0,1,11.06,20.83,31.74,31.74,0,0,1-3.7,6.57q-19.52,27.15-39.17,54.2c-2.7,3.72-4.86,7.73-5.17,12.33s0,9.31,0,14c0,2.08.72,2.66,2.82,2.65,21.07-.08,42.15,0,63.23,0h2.55c.49-4.35,1.15-8.5,1.39-12.68.31-5.65-1.61-7.71-7.31-7.87-7-.2-13.94-.15-20.91-.19-4.34,0-8.68,0-13.87,0,1.21-2.65,1.86-4.86,3.11-6.64,5.1-7.27,10.6-14.27,15.55-21.64q10.05-15,19.44-30.34a30.8,30.8,0,0,0,4.39-13.91c1.08-14.73-7.16-28.7-20.82-35.47-12.72-6.3-26.71-4.18-38.07,6.09-10.31,9.31-14.38,20.86-11.35,34.61.19.83,1.07,2.15,1.66,2.16C451.08,655,456.89,655,462.88,655ZM778,675.88h-.42c0,2.84-.06,5.68,0,8.51.26,9.42-.06,18.9,1,28.23,1.69,14.94,13.62,27.1,28.17,30s29.11-3.8,37.08-16.86c4.43-7.26,5.41-15.36,6.15-23.53.27-3-1.47-4.88-4.53-5.43a45.67,45.67,0,0,0-6.62-.65c-6.75-.19-9.26,2-10.27,8.7-.6,4-1.57,7.78-4,11.11-6.16,8.44-18,7.76-23.09-1.35A21.31,21.31,0,0,1,799,704c-.06-16.17-.21-32.34-.18-48.51a79.84,79.84,0,0,1,.92-14.18,13.35,13.35,0,0,1,10.39-11.1c5.28-1.29,9.67.67,13,4.82a22.22,22.22,0,0,1,5,11.92c.66,6.23,2.88,8,9,7.36a37.76,37.76,0,0,1,6.38,0c3.08.23,4.89-1,5.34-4a35.51,35.51,0,0,0-1.42-15.66c-4.47-14.88-18-25.59-32.31-26.29-19-.93-36.4,15-37.08,35.18C777.69,654.26,778,665.08,778,675.88Zm-32.16,64.81c0-3.92,0-7.74,0-11.55q-.09-40.35-.15-80.71a101.41,101.41,0,0,1,.54-10.31c.31-3.13,2.29-4.91,5.37-5.4a42.43,42.43,0,0,1,4.33-.47c3.44-.17,6.9-.11,10.33-.43,3.25-.31,5-2.18,5.21-5.4a95.56,95.56,0,0,0,0-10.57c-.22-3.64-2-5.47-5.66-5.7-3.36-.21-6.73,0-10.1,0-14.79,0-29.59,0-44.38,0a49.28,49.28,0,0,0-6.64.46c-3.25.44-4.92,1.78-5,5-.06,4.7.51,9.42.83,14.13.11,1.72,1.07,2.23,2.75,2.16,4.36-.19,8.72-.2,13.08-.3,5.56-.12,8.27,2.29,8.71,7.8.12,1.53.13,3.06.13,4.59q0,43.92-.08,87.85c0,2.94.34,5.89.52,8.81ZM436,610.24H433.3q-16.1,0-32.2,0c-10.2,0-20.39.07-30.59,0-2.32,0-4.22.61-5.45,2.71a12.29,12.29,0,0,0,10.24,18.83c2.68.09,5.36-.12,8-.05,3.55.08,5.68,1.7,6.34,5.15a39.47,39.47,0,0,1,.48,7.3q0,44.28,0,88.56c0,2.64.27,5.29.41,7.92H410.9V739q-.18-37.95-.37-75.9c0-7.44-.14-14.88-.16-22.31,0-7.25,2.11-9.26,9.41-9,1.76.07,3.52.21,5.29.23,3.63,0,7.27,0,10.94,0Z" transform="translate(-87.87 -25)"/><path class="cls-2" d="M87.87,610.65c6.13.07,12.25.19,18.38.16,1.6,0,2.18.38,2.42,2.1,3.63,26,7.35,52,11.08,78.19l2.64.14c.93-5.56,1.91-11,2.74-16.4q3.66-24.08,7.2-48.16c.44-2.95.72-5.93,1.09-8.89.64-5.08,3-7.3,8.06-7.69l.92-.07c7.29-.5,9.75,1.54,10.74,8.71Q158,653.9,163,689c.08.61.25,1.2.42,2l2.66.22c.78-5,1.56-10,2.32-15,2.24-14.6,4.51-29.2,6.67-43.82.69-4.7.88-9.46,1.61-14.15,1-6.27,4.35-8.91,10.66-8.51,3.73.24,7.44.76,11.4,1.17-.81,4.75-1.6,9.48-2.42,14.2q-6.12,35.3-12.24,70.59-3.75,21.62-7.43,43.23c-.25,1.45-.92,1.8-2.3,1.78q-9.44-.1-18.86,0c-1.57,0-2.06-.49-2.28-2q-4.11-29.58-8.36-59.14a10,10,0,0,0-.35-1.25l-2.61-.25c-3.18,20.95-6.34,41.75-9.51,62.66h-22.7q-1.9-11.31-3.81-22.6-5.67-33.75-11.33-67.5-3.09-18.45-6.18-36.92a6.52,6.52,0,0,0-.45-1.23Z" transform="translate(-87.87 -25)"/><path class="cls-3" d="M646.84,365.32c-31.59-5.87-63.26-11.4-94.77-17.7-39.76-7.95-79.4-16.53-119.09-24.85a285,285,0,0,0-44.45-5.24q-12-.6-24.06-1.77c-5.3-.52-9.26-2.9-11.7-8.21-14.09-30.76-25.93-62.28-33.66-95.26A363.35,363.35,0,0,1,310,151.72c-.81-12.95-1.27-25.88.09-38.81,1.72-16.42,5.57-32.28,12.71-47.21,8.71-18.21,23.12-28.65,43.28-31,16-1.9,32-4.35,48.12-5.73,12.81-1.09,25.73-1.33,38.6-1.27,25.44.12,50.91.08,76.32,1.27,24.78,1.17,49.54,3.34,74.22,5.9A760.65,760.65,0,0,1,692,49c14.12,3.18,28,7.33,41,13.83a52.73,52.73,0,0,1,9.94,6.55c10.32,8.49,13.28,19.4,10,32.18a61.45,61.45,0,0,1-8.23,18.11c-14.22,21.82-28.58,43.54-42.79,65.36-18.26,28.06-35.65,56.63-50.22,86.83C645.74,284.05,640.55,296.52,638,310a77,77,0,0,0,7.91,52.28c.44.8.85,1.62,1.28,2.43ZM463.77,195.09h0v1.14c0,13.26-.08,26.52.12,39.78a26.55,26.55,0,0,0,1.82,8.88c1.79,4.63,5.4,7.05,10.54,6.92,3.89-.09,7.29-1.58,10.55-3.46q34.35-19.86,68.63-39.82a34.31,34.31,0,0,0,7.3-5.85c4.25-4.45,4.45-9.65.36-14.19a34.82,34.82,0,0,0-8.15-6.6Q521.08,162,487.08,142.51a33.27,33.27,0,0,0-7.13-3c-7.29-2.14-12.91.93-15.15,8.17a18,18,0,0,0-1,5.15C463.74,166.89,463.77,181,463.77,195.09Zm203.57-85.4c10.88,2.82,21.29,5.8,31.83,8.14,7.09,1.58,10-.06,13.49-6.43,2.15-3.86,4.13-7.83,5.93-11.88,2.2-5,.89-7.85-4.29-9.51-9.58-3.06-19.19-6-28.81-8.92a5.85,5.85,0,0,0-7.36,3.31C674.55,92.65,671.07,100.94,667.34,109.69ZM405.1,61.7c-3.11.37-5.8.62-8.47,1C388,64.09,379.25,65.19,370.69,67c-6.74,1.41-12.91,4.36-17,10.38-4.49,6.64-5.76,14.26-6.91,22.1a22.78,22.78,0,0,0,2.52,0c9.77-1.22,19.52-2.65,29.31-3.62,4.73-.47,7.9-2.33,10-6.64,2-4,4.54-7.6,6.82-11.4C398.62,72.57,401.73,67.33,405.1,61.7ZM599.56,212.87c2.83.54,5.14,1,7.45,1.42l29,5.32a4.93,4.93,0,0,0,5.6-2.53c4.51-7.28,9.1-14.51,13.65-21.76.31-.5.55-1,1-1.82-11.75-2.51-23.27-5-34.81-7.41a6.37,6.37,0,0,0-6.88,2.72C609.5,196.64,604.68,204.61,599.56,212.87Zm90.5-69.07c-11.83-3.05-23.18-6-34.54-8.89-3.77-1-5.91-.21-8.08,3-4.71,6.88-9.32,13.81-14,20.73a10.12,10.12,0,0,0-.56,1c.14.23.17.33.22.35,11.54,2.83,23.06,5.69,34.61,8.43,2,.49,4.32.31,5.69-1.55C678.94,159.38,684.33,151.78,690.06,143.8ZM347.27,184.65c2.07,8.61,4,17,6.09,25.31.75,3,2.79,4.19,6,3.76,6.28-.85,12.57-1.6,18.85-2.44,4.74-.63,9.47-1.35,14.79-2.11-2.22-8.16-4.18-16.13-6.62-23.95-1-3.27-5.47-5.28-8.81-4.85-6.35.82-12.72,1.59-19.06,2.47C354.79,183.35,351.13,184,347.27,184.65Zm228.22,82.63c1.29.24,2.26.45,3.24.59,8.91,1.31,17.83,2.5,26.72,3.92,6.81,1.09,8.83.2,11.78-6,.27-.55.52-1.1.77-1.66l8.28-18.73c-11.92-1.88-23.52-3.73-35.13-5.54a5.08,5.08,0,0,0-5.7,3.25C582.12,251.09,578.88,259.07,575.49,267.28Zm-164-2.42c-2.78-7.6-5.39-14.9-8.12-22.16-1.93-5.13-4.07-6.19-9.49-5.47-6.28.83-12.59,1.43-18.89,2.16-4.28.5-8.56,1-13.2,1.61,3.06,8.18,5.93,16.11,9.05,23.94a5.24,5.24,0,0,0,5.67,3.43c7-.65,14-1.24,21-1.92C402.05,266,406.59,265.42,411.5,264.86ZM381,123a17.24,17.24,0,0,0-2.49,0c-9.22,1.33-18.4,2.93-27.65,4-4.87.54-6.92,3.26-7.89,7.47a8,8,0,0,0-.22,3c.87,5.49,1.79,11,2.81,16.43.63,3.43.9,3.59,4.34,3.1q10.75-1.56,21.5-3.24a17.18,17.18,0,0,0,4.86-1.23A7.73,7.73,0,0,0,381,145C381,137.7,381,130.38,381,123ZM604.75,299.73c-2.83-.42-5.54-.85-8.26-1.22q-11.36-1.53-22.7-3c-3-.4-5,1.15-6.25,3.67a27.36,27.36,0,0,0-1.65,4c-2.22,6.87.1,12.32,7.05,14.2a216.66,216.66,0,0,0,23.52,4.6c3.92.61,6.13-1.28,7.24-5.14a26.82,26.82,0,0,0,1.1-5.6C605,307.48,606.29,303.69,604.75,299.73Z" transform="translate(-87.87 -25)"/><path class="cls-2" d="M372.62,396.37c-18.65-.26-36.77-1-54.19,5.38a64.28,64.28,0,0,0-22.11,13.69c-15.66,14.78-16.41,36.44-1.89,52.36a73.58,73.58,0,0,1,7.44,9c4.22,6.43,6.14,13.49,4.13,21.21a22,22,0,0,1-19.64,16.46,31.56,31.56,0,0,1-22.79-6.71c-15.36-12-24.27-28-28.42-46.72-5.33-24.05.31-46,13.38-66.35,15-23.42,36.61-37.36,63.27-44,17.71-4.38,35.76-5.05,53.89-4.7A328.82,328.82,0,0,1,422.31,352c37,7.23,73.92,15.11,110.94,22.41Q577.4,383.12,621.7,391c17.73,3.15,35.71,3.14,53.65,2.13,8-.45,16.15-.65,24-2.07,23.54-4.23,39.51-17.79,47.44-40.45,2-5.72,2.14-11.76,1.67-17.75-.59-7.47-5.88-13-14.36-15.41-11.41-3.21-19.07.47-23.63,11.37-.71,1.69-1.15,3.52-2,5.12-2.1,3.88-4,8-6.7,11.41-5.49,6.74-12.8,10.28-21.65,9.25-10.31-1.2-17.18-7.74-19.41-18.08-2.29-10.64-.13-20.82,4.37-30.39,10.25-21.79,27.19-35.8,51.13-39.35,42.42-6.28,75.92,20.73,82.52,58.36,3.47,19.73-.63,38.21-9.38,55.87-11.75,23.7-30.67,39.8-54.42,50.6-6,2.73-12.19,4.92-18.31,7.35-2.75,1.1-3.24,2.15-2.17,4.81q17.19,42.69,34.36,85.38c1.89,4.71,3.55,9.52,2.78,14.72-1.3,8.79-7.83,15.32-17,17.05-11.13,2.12-21.41-4.76-23.9-16a49.6,49.6,0,0,0-1.44-5.07c-3.55-10.44-11.06-16.46-21.79-17.47-10-.94-20.19-.91-30.29-.9-25.15,0-50.29.35-75.44.46q-31.86.15-63.71.1-69.58-.15-139.16-.41c-.92,0-1.84,0-2.76,0-7.49.27-10.41,2.69-12.94,9.74a181.48,181.48,0,0,1-7.37,17.79c-4.64,9.57-14.31,14-24.06,11.46-13-3.35-18.88-14.85-14-27.73,3.76-9.94,7.87-19.76,11.87-29.61q19.31-47.52,38.63-95C369.81,404.55,371.08,400.64,372.62,396.37ZM686,486.53c-.37-.89-.63-1.52-.88-2.14-3.83-9.72-7.92-19.34-11.39-29.18-2.26-6.43-6.47-9.91-13-10.57-12.1-1.21-24.24-2.07-36.34-3.31-9-.92-18.09-1.92-27-3.41-11.73-1.95-23.39-4.33-35.06-6.66-21.53-4.31-43.06-8.62-64.55-13.08-24.34-5.05-48.64-10.27-73-15.38-6.65-1.4-9.33.13-11.89,6.52q-13.79,34.4-27.52,68.83a85.36,85.36,0,0,0-2.39,8.38Z" transform="translate(-87.87 -25)"/><path class="cls-2" d="M541.93,740.61c-7.25-43.14-14.49-86.22-21.78-129.64,5.05-.34,9.83-.92,14.61-.9,3.74,0,5.89,2,6.66,5.82.87,4.34,1.28,8.78,1.89,13.18,2,13.95,3.83,27.91,5.86,41.86,1,6.81,2.23,13.59,3.38,20.38a17.44,17.44,0,0,0,.54,2l.74.1c1.1-5.51,2.4-11,3.25-16.54,2.52-16.43,4.86-32.88,7.26-49.32.54-3.64.91-7.3,1.56-10.91.77-4.22,2.88-6,7.15-6.5l1.14-.13c7.19-.69,10.12,1.51,11.13,8.6,2.92,20.62,5.78,41.25,8.71,61.88.51,3.63,1.24,7.23,1.89,11l2.4.15c1-6.63,2-13.12,3-19.62q3.93-27.06,7.82-54.11a20.91,20.91,0,0,1,.57-2.7c1-3.7,2.49-5.08,6.33-5.07,4.87,0,9.74.39,14.92.62-.81,4.79-1.51,9-2.23,13.19q-5.18,30.22-10.37,60.43-3.54,20.6-7.12,41.19c-.57,3.31-.94,6.69-1.79,9.93-1.2,4.5-4.15,6.39-8.69,6.2s-8.87-.28-13.31-.41l-1.5-.09c-.84-5.73-1.7-11.39-2.52-17.06q-3.28-22.62-6.5-45.24c-.27-1.87-1.28-1.74-2.8-1.45q-4.74,31.49-9.49,63.16Z" transform="translate(-87.87 -25)"/><path class="cls-2" d="M916,610.33c5.06,0,9.95-.19,14.82.07a6.17,6.17,0,0,1,5.64,6.19q.15,61.41.27,122.82c0,.31,0,.61-.09,1.1H915.87V737.9q0-22.08,0-44.16a42.78,42.78,0,0,0-.31-5c-.32-2.85-1.48-4.31-4.35-4.43-6.88-.3-13.78-.36-20.67-.35a3.77,3.77,0,0,0-4.06,3.83c-.12,1.6-.29,3.21-.3,4.81q0,22.77,0,45.54v2.62H866.2a66.25,66.25,0,0,1-.76-7q-.15-56.36-.21-112.7v-.69c0-8.09,2-10.21,10.11-10.47,8.65-.28,11.06,2.28,10.92,10.92-.19,11.72-.16,23.45-.16,35.18,0,4.15,1.71,6.25,5.9,6.37,6.58.2,13.18,0,19.77-.23a3.83,3.83,0,0,0,4-3.94c.09-1.45.17-2.9.17-4.35q0-21,0-42.08C915.88,611.33,915.92,611,916,610.33Z" transform="translate(-87.87 -25)"/><path class="cls-2" d="M262.34,740.61c0-7.36-.06-14.56,0-21.75.08-8.05.27-16.09.41-24.14.14-8.72-2.94-11.67-11.63-11.21-4.43.24-8.88.29-13.3.66-3.53.29-4.54,1.27-4.65,4.72-.21,7.13-.24,14.25-.27,21.38,0,9.27,0,18.55,0,27.82v2.63H212.85V614.29c0-3,.21-3.38,3.3-3.72,3.42-.37,6.86-.74,10.29-.79,3.64,0,5.43,1.43,6,5a58.31,58.31,0,0,1,.63,9.15c0,10-.14,19.93-.2,29.89a18.72,18.72,0,0,0,.22,3.43c.57,3.09,2.06,4.81,5.18,4.89q10.09.27,20.2-.13c3.07-.12,4.16-1.85,4.18-5.5,0-7.36,0-14.71,0-22.07,0-6.75.05-13.49-.09-20.23,0-2.16,1-3.26,2.79-3.5a97.91,97.91,0,0,1,11.19-1c3.84-.09,5.9,1.71,6.34,5.54a102.5,102.5,0,0,1,.58,11.23q.23,55.88.36,111.75v2.35Z" transform="translate(-87.87 -25)"/><path class="cls-2" d="M679.75,610c7.41,43.74,14.76,87.09,22.16,130.74-6.46,0-12.58,0-18.69-.06-.5,0-1.19-.79-1.44-1.36-.94-2.17-1.68-4.43-2.59-6.61a6.93,6.93,0,0,0-5.89-4.56c-5.18-.44-10.38-.75-15.57-.75-3.47,0-5.58,2.25-6.49,5.53-.58,2.06-.94,4.18-1.57,6.22-.2.62-1,1.48-1.53,1.49-6.19.11-12.39.07-18.85.07.91-5.36,1.74-10.47,2.65-15.57q7.69-43.39,15.42-86.79c1.22-6.86,2.31-13.74,3.65-20.57,1.21-6.2,4.37-8.18,10.6-7.85C667.57,610.27,673.55,610,679.75,610Zm-15.26,42.09c-3,18.92-6,37.49-9,56.34,4.34,0,8.38.07,12.42,0a7.68,7.68,0,0,0,3.47-.9c2.7-1.56,3.33-3.81,2.75-7-1-5.61-1.38-11.33-2.11-17-.81-6.42-1.72-12.81-2.6-19.22q-.79-5.84-1.63-11.72Z" transform="translate(-87.87 -25)"/><path class="cls-2" d="M367.15,740.45c-6.59,0-12.94,0-19.29-.06-.48,0-1.22-.81-1.38-1.38-.53-1.83-.78-3.74-1.28-5.59-1.12-4.24-3.3-6.27-7.64-6.23-4.81,0-9.62.61-14.42,1.07-3.3.33-5.42,2.32-6.58,5.35-.89,2.35-1.7,4.72-2.57,7.13H294.44c1-5.82,2-11.53,3-17.22q6.78-38,13.58-76c1.74-9.79,3.36-19.61,5.09-29.41,1-5.54,3.25-7.8,8.86-8.09a120.21,120.21,0,0,1,13.55.26c4.09.25,6.64,2.7,7.44,6.66q2,9.9,3.66,19.86c3.34,19.62,6.6,39.26,9.91,58.88C362,710.51,364.57,725.3,367.15,740.45ZM332.92,653c-1.36.3-3.1-.86-3.47,1.31-1,5.91-1.86,11.84-2.8,17.75-1.31,8.25-2.65,16.48-4,24.72-.57,3.57-1.09,7.14-1.64,10.78h19.74C338.17,689.41,335.57,671.38,332.92,653Z" transform="translate(-87.87 -25)"/><path class="cls-2" d="M462.88,655c-6,0-11.8.07-17.6-.1-.59,0-1.47-1.33-1.66-2.16-3-13.75,1-25.3,11.35-34.61,11.36-10.27,25.35-12.39,38.07-6.09,13.66,6.77,21.9,20.74,20.82,35.47a30.8,30.8,0,0,1-4.39,13.91q-9.42,15.35-19.44,30.34c-4.95,7.37-10.45,14.37-15.55,21.64-1.25,1.78-1.9,4-3.11,6.64,5.19,0,9.53,0,13.87,0,7,0,13.95,0,20.91.19,5.7.16,7.62,2.22,7.31,7.87-.24,4.18-.9,8.33-1.39,12.68h-2.55c-21.08,0-42.16,0-63.23,0-2.1,0-2.85-.57-2.82-2.65.07-4.66-.28-9.34,0-14s2.47-8.61,5.17-12.33q19.63-27.08,39.17-54.2a31.74,31.74,0,0,0,3.7-6.57,15.44,15.44,0,0,0-11.06-20.83c-6.91-1.41-14.2,3.49-16.2,11.1a47.62,47.62,0,0,0-1,7.27C463.09,650.64,463,652.69,462.88,655Z" transform="translate(-87.87 -25)"/><path class="cls-2" d="M778,675.88c0-10.8-.3-21.62.07-32.41.68-20.22,18-36.11,37.08-35.18,14.33.7,27.84,11.41,32.31,26.29a35.51,35.51,0,0,1,1.42,15.66c-.45,3-2.26,4.26-5.34,4a37.76,37.76,0,0,0-6.38,0c-6.17.64-8.39-1.13-9-7.36a22.22,22.22,0,0,0-5-11.92c-3.37-4.15-7.76-6.11-13-4.82a13.35,13.35,0,0,0-10.39,11.1,79.84,79.84,0,0,0-.92,14.18c0,16.17.12,32.34.18,48.51a21.31,21.31,0,0,0,2.49,10.61c5.11,9.11,16.93,9.79,23.09,1.35,2.42-3.33,3.39-7.14,4-11.11,1-6.73,3.52-8.89,10.27-8.7a45.67,45.67,0,0,1,6.62.65c3.06.55,4.8,2.47,4.53,5.43-.74,8.17-1.72,16.27-6.15,23.53-8,13.06-22.48,19.74-37.08,16.86s-26.48-15-28.17-30c-1.05-9.33-.73-18.81-1-28.23-.07-2.83,0-5.67,0-8.51Z" transform="translate(-87.87 -25)"/><path class="cls-2" d="M745.83,740.69H725.64c-.18-2.92-.52-5.87-.52-8.81q0-43.93.08-87.85c0-1.53,0-3.06-.13-4.59-.44-5.51-3.15-7.92-8.71-7.8-4.36.1-8.72.11-13.08.3-1.68.07-2.64-.44-2.75-2.16-.32-4.71-.89-9.43-.83-14.13,0-3.21,1.71-4.55,5-5a49.28,49.28,0,0,1,6.64-.46c14.79,0,29.59,0,44.38,0,3.37,0,6.74-.25,10.1,0,3.64.23,5.44,2.06,5.66,5.7a95.56,95.56,0,0,1,0,10.57c-.16,3.22-2,5.09-5.21,5.4-3.43.32-6.89.26-10.33.43a42.43,42.43,0,0,0-4.33.47c-3.08.49-5.06,2.27-5.37,5.4a101.41,101.41,0,0,0-.54,10.31q0,40.35.15,80.71C745.84,733,745.83,736.77,745.83,740.69Z" transform="translate(-87.87 -25)"/><path class="cls-2" d="M436,610.24v21.82c-3.67,0-7.31,0-10.94,0-1.77,0-3.53-.16-5.29-.23-7.3-.27-9.43,1.74-9.41,9,0,7.43.12,14.87.16,22.31q.2,37.95.37,75.9v1.7H390.57c-.14-2.63-.41-5.28-.41-7.92q0-44.28,0-88.56a39.47,39.47,0,0,0-.48-7.3c-.66-3.45-2.79-5.07-6.34-5.15-2.68-.07-5.36.14-8,.05A12.29,12.29,0,0,1,365.06,613c1.23-2.1,3.13-2.71,5.45-2.71,10.2,0,20.39,0,30.59,0q16.11,0,32.2,0Z" transform="translate(-87.87 -25)"/><path class="cls-1" d="M463.77,195.09c0-14.1,0-28.2.05-42.3a18,18,0,0,1,1-5.15c2.24-7.24,7.86-10.31,15.15-8.17a33.27,33.27,0,0,1,7.13,3q34,19.59,67.81,39.38a34.82,34.82,0,0,1,8.15,6.6c4.09,4.54,3.89,9.74-.36,14.19a34.31,34.31,0,0,1-7.3,5.85q-34.25,20-68.63,39.82c-3.26,1.88-6.66,3.37-10.55,3.46-5.14.13-8.75-2.29-10.54-6.92a26.55,26.55,0,0,1-1.82-8.88c-.2-13.26-.11-26.52-.12-39.78v-1.14Z" transform="translate(-87.87 -25)"/><path class="cls-4" d="M667.34,109.69c3.73-8.75,7.21-17,10.79-25.29a5.85,5.85,0,0,1,7.36-3.31C695.11,84,704.72,87,714.3,90c5.18,1.66,6.49,4.55,4.29,9.51-1.8,4-3.78,8-5.93,11.88-3.53,6.37-6.4,8-13.49,6.43C688.63,115.49,678.22,112.51,667.34,109.69Z" transform="translate(-87.87 -25)"/><path class="cls-4" d="M405.1,61.7c-3.37,5.63-6.48,10.87-9.62,16.09-2.28,3.8-4.85,7.45-6.82,11.4-2.14,4.31-5.31,6.17-10,6.64-9.79,1-19.54,2.4-29.31,3.62a22.78,22.78,0,0,1-2.52,0c1.15-7.84,2.42-15.46,6.91-22.1,4.08-6,10.25-9,17-10.38,8.56-1.8,17.28-2.9,25.94-4.26C399.3,62.32,402,62.07,405.1,61.7Z" transform="translate(-87.87 -25)"/><path class="cls-4" d="M599.56,212.87c5.12-8.26,9.94-16.23,15-24.06a6.37,6.37,0,0,1,6.88-2.72c11.54,2.39,23.06,4.9,34.81,7.41-.41.78-.65,1.32-1,1.82-4.55,7.25-9.14,14.48-13.65,21.76a4.93,4.93,0,0,1-5.6,2.53l-29-5.32C604.7,213.87,602.39,213.41,599.56,212.87Z" transform="translate(-87.87 -25)"/><path class="cls-4" d="M690.06,143.8c-5.73,8-11.12,15.58-16.63,23.09-1.37,1.86-3.64,2-5.69,1.55-11.55-2.74-23.07-5.6-34.61-8.43,0,0-.08-.12-.22-.35a10.12,10.12,0,0,1,.56-1c4.65-6.92,9.26-13.85,14-20.73,2.17-3.18,4.31-3.94,8.08-3C666.88,137.8,678.23,140.75,690.06,143.8Z" transform="translate(-87.87 -25)"/><path class="cls-4" d="M347.27,184.65c3.86-.63,7.52-1.3,11.21-1.81,6.34-.88,12.71-1.65,19.06-2.47,3.34-.43,7.79,1.58,8.81,4.85,2.44,7.82,4.4,15.79,6.62,23.95-5.32.76-10.05,1.48-14.79,2.11-6.28.84-12.57,1.59-18.85,2.44-3.18.43-5.22-.71-6-3.76C351.31,201.62,349.34,193.26,347.27,184.65Z" transform="translate(-87.87 -25)"/><path class="cls-4" d="M575.49,267.28c3.39-8.21,6.63-16.19,10-24.12a5.08,5.08,0,0,1,5.7-3.25c11.61,1.81,23.21,3.66,35.13,5.54L618,264.18c-.25.56-.5,1.11-.77,1.66-3,6.15-5,7-11.78,6-8.89-1.42-17.81-2.61-26.72-3.92C577.75,267.73,576.78,267.52,575.49,267.28Z" transform="translate(-87.87 -25)"/><path class="cls-4" d="M411.5,264.86c-4.91.56-9.45,1.14-14,1.59-7,.68-14,1.27-21,1.92a5.24,5.24,0,0,1-5.67-3.43c-3.12-7.83-6-15.76-9.05-23.94,4.64-.57,8.92-1.11,13.2-1.61,6.3-.73,12.61-1.33,18.89-2.16,5.42-.72,7.56.34,9.49,5.47C406.11,250,408.72,257.26,411.5,264.86Z" transform="translate(-87.87 -25)"/><path class="cls-4" d="M381,123c0,7.36,0,14.68,0,22a7.73,7.73,0,0,1-4.76,7.45,17.18,17.18,0,0,1-4.86,1.23q-10.74,1.68-21.5,3.24c-3.44.49-3.71.33-4.34-3.1-1-5.46-1.94-10.94-2.81-16.43a8,8,0,0,1,.22-3c1-4.21,3-6.93,7.89-7.47,9.25-1,18.43-2.63,27.65-4A17.24,17.24,0,0,1,381,123Z" transform="translate(-87.87 -25)"/><path class="cls-4" d="M604.75,299.73c1.54,4,.29,7.75,0,11.51a26.82,26.82,0,0,1-1.1,5.6c-1.11,3.86-3.32,5.75-7.24,5.14a216.66,216.66,0,0,1-23.52-4.6c-7-1.88-9.27-7.33-7.05-14.2a27.36,27.36,0,0,1,1.65-4c1.29-2.52,3.23-4.07,6.25-3.67q11.36,1.49,22.7,3C599.21,298.88,601.92,299.31,604.75,299.73Z" transform="translate(-87.87 -25)"/><path class="cls-1" d="M686,486.53H383a85.36,85.36,0,0,1,2.39-8.38q13.68-34.45,27.52-68.83c2.56-6.39,5.24-7.92,11.89-6.52,24.32,5.11,48.62,10.33,73,15.38,21.49,4.46,43,8.77,64.55,13.08,11.67,2.33,23.33,4.71,35.06,6.66,9,1.49,18,2.49,27,3.41,12.1,1.24,24.24,2.1,36.34,3.31,6.52.66,10.73,4.14,13,10.57,3.47,9.84,7.56,19.46,11.39,29.18C685.39,485,685.65,485.64,686,486.53Z" transform="translate(-87.87 -25)"/><path class="cls-5" d="M664.49,652.11l3.28.48q.83,5.89,1.63,11.72c.88,6.41,1.79,12.8,2.6,19.22.73,5.66,1.09,11.38,2.11,17,.58,3.18-.05,5.43-2.75,7a7.68,7.68,0,0,1-3.47.9c-4,.11-8.08,0-12.42,0C658.49,689.6,661.46,671,664.49,652.11Z" transform="translate(-87.87 -25)"/><path class="cls-4" d="M332.92,653c2.65,18.36,5.25,36.39,7.87,54.56H321.05c.55-3.64,1.07-7.21,1.64-10.78,1.31-8.24,2.65-16.47,4-24.72.94-5.91,1.81-11.84,2.8-17.75C329.82,652.16,331.56,653.32,332.92,653Z" transform="translate(-87.87 -25)"/></svg>